<mxfile host="65bd71144e" scale="1" border="25">
    <diagram id="7B9ORcsadokDrZPnAl_T" name="HLA">
        <mxGraphModel dx="1607" dy="701" grid="1" gridSize="10" guides="1" tooltips="1" connect="1" arrows="1" fold="1" page="1" pageScale="1" pageWidth="827" pageHeight="1169" background="#ffffff" math="0" shadow="0">
            <root>
                <mxCell id="0"/>
                <mxCell id="1" parent="0"/>
                <mxCell id="oFvCKLaS0GSqAq1-Jr5w-1" value="AWS Cloud frame" parent="0"/>
                <mxCell id="oFvCKLaS0GSqAq1-Jr5w-2" value="AWS Cloud" style="points=[[0,0],[0.25,0],[0.5,0],[0.75,0],[1,0],[1,0.25],[1,0.5],[1,0.75],[1,1],[0.75,1],[0.5,1],[0.25,1],[0,1],[0,0.75],[0,0.5],[0,0.25]];outlineConnect=0;html=1;whiteSpace=wrap;fontSize=12;fontStyle=0;shape=mxgraph.aws4.group;grIcon=mxgraph.aws4.group_aws_cloud_alt;verticalAlign=top;align=left;spacingLeft=30;dashed=0;fillColor=none;" parent="oFvCKLaS0GSqAq1-Jr5w-1" vertex="1">
                    <mxGeometry x="-120" y="400" width="720" height="320" as="geometry"/>
                </mxCell>
                <mxCell id="oFvCKLaS0GSqAq1-Jr5w-4" value="Data preparation" parent="0"/>
                <mxCell id="oFvCKLaS0GSqAq1-Jr5w-5" value="AWS Step Functions workflow" style="points=[[0,0],[0.25,0],[0.5,0],[0.75,0],[1,0],[1,0.25],[1,0.5],[1,0.75],[1,1],[0.75,1],[0.5,1],[0.25,1],[0,1],[0,0.75],[0,0.5],[0,0.25]];outlineConnect=0;gradientColor=none;html=1;whiteSpace=wrap;fontSize=12;fontStyle=0;shape=mxgraph.aws4.group;grIcon=mxgraph.aws4.group_aws_step_functions_workflow;strokeColor=#CD2264;fillColor=none;verticalAlign=top;align=left;spacingLeft=30;fontColor=#CD2264;dashed=0;" parent="oFvCKLaS0GSqAq1-Jr5w-4" vertex="1">
                    <mxGeometry x="80" y="440" width="320" height="240" as="geometry"/>
                </mxCell>
                <mxCell id="oFvCKLaS0GSqAq1-Jr5w-10" value="Crawl raw data" style="rounded=0;whiteSpace=wrap;html=1;align=left;spacingLeft=80;" parent="oFvCKLaS0GSqAq1-Jr5w-4" vertex="1">
                    <mxGeometry x="120" y="490" width="240" height="60" as="geometry"/>
                </mxCell>
                <mxCell id="oFvCKLaS0GSqAq1-Jr5w-11" value="" style="sketch=0;outlineConnect=0;fontColor=#232F3E;gradientColor=none;fillColor=#A166FF;strokeColor=none;dashed=0;verticalLabelPosition=bottom;verticalAlign=top;align=center;html=1;fontSize=12;fontStyle=0;aspect=fixed;pointerEvents=1;shape=mxgraph.aws4.glue_crawlers;" parent="oFvCKLaS0GSqAq1-Jr5w-4" vertex="1">
                    <mxGeometry x="140" y="500" width="40" height="40" as="geometry"/>
                </mxCell>
                <mxCell id="oFvCKLaS0GSqAq1-Jr5w-14" value="Execute data&lt;br&gt;preparation queries" style="rounded=0;whiteSpace=wrap;html=1;align=left;spacingLeft=80;" parent="oFvCKLaS0GSqAq1-Jr5w-4" vertex="1">
                    <mxGeometry x="120" y="580" width="240" height="60" as="geometry"/>
                </mxCell>
                <mxCell id="oFvCKLaS0GSqAq1-Jr5w-16" value="" style="sketch=0;points=[[0,0,0],[0.25,0,0],[0.5,0,0],[0.75,0,0],[1,0,0],[0,1,0],[0.25,1,0],[0.5,1,0],[0.75,1,0],[1,1,0],[0,0.25,0],[0,0.5,0],[0,0.75,0],[1,0.25,0],[1,0.5,0],[1,0.75,0]];outlineConnect=0;fontColor=#232F3E;gradientColor=#945DF2;gradientDirection=north;fillColor=#5A30B5;strokeColor=#ffffff;dashed=0;verticalLabelPosition=bottom;verticalAlign=top;align=center;html=1;fontSize=12;fontStyle=0;aspect=fixed;shape=mxgraph.aws4.resourceIcon;resIcon=mxgraph.aws4.athena;" parent="oFvCKLaS0GSqAq1-Jr5w-4" vertex="1">
                    <mxGeometry x="140" y="590" width="40" height="40" as="geometry"/>
                </mxCell>
                <mxCell id="oFvCKLaS0GSqAq1-Jr5w-17" value="Raw data Bucket" style="sketch=0;outlineConnect=0;fontColor=#232F3E;gradientColor=none;fillColor=#6CAE3E;strokeColor=none;dashed=0;verticalLabelPosition=bottom;verticalAlign=top;align=center;html=1;fontSize=12;fontStyle=0;aspect=fixed;pointerEvents=1;shape=mxgraph.aws4.bucket;" parent="oFvCKLaS0GSqAq1-Jr5w-4" vertex="1">
                    <mxGeometry x="470" y="440" width="75" height="78" as="geometry"/>
                </mxCell>
                <mxCell id="oFvCKLaS0GSqAq1-Jr5w-21" value="AWS Glue Data&lt;br&gt;Catalog" style="sketch=0;outlineConnect=0;fontColor=#232F3E;gradientColor=none;fillColor=#A166FF;strokeColor=none;dashed=0;verticalLabelPosition=bottom;verticalAlign=top;align=center;html=1;fontSize=12;fontStyle=0;aspect=fixed;pointerEvents=1;shape=mxgraph.aws4.glue_data_catalog;" parent="oFvCKLaS0GSqAq1-Jr5w-4" vertex="1">
                    <mxGeometry x="-80" y="521" width="72" height="78" as="geometry"/>
                </mxCell>
                <mxCell id="oFvCKLaS0GSqAq1-Jr5w-23" value="" style="edgeStyle=orthogonalEdgeStyle;html=1;endArrow=block;elbow=vertical;startArrow=none;endFill=1;strokeColor=#545B64;rounded=0;exitX=0;exitY=0.5;exitDx=0;exitDy=0;" parent="oFvCKLaS0GSqAq1-Jr5w-4" source="oFvCKLaS0GSqAq1-Jr5w-10" target="oFvCKLaS0GSqAq1-Jr5w-21" edge="1">
                    <mxGeometry width="100" relative="1" as="geometry">
                        <mxPoint x="370" y="530" as="sourcePoint"/>
                        <mxPoint x="530.0066391265859" y="550" as="targetPoint"/>
                        <Array as="points">
                            <mxPoint x="120" y="530"/>
                            <mxPoint x="40" y="530"/>
                            <mxPoint x="40" y="550"/>
                        </Array>
                    </mxGeometry>
                </mxCell>
                <mxCell id="oFvCKLaS0GSqAq1-Jr5w-24" value="" style="edgeStyle=orthogonalEdgeStyle;html=1;endArrow=block;elbow=vertical;startArrow=none;endFill=1;strokeColor=#545B64;rounded=0;exitX=0;exitY=0.5;exitDx=0;exitDy=0;" parent="oFvCKLaS0GSqAq1-Jr5w-4" source="oFvCKLaS0GSqAq1-Jr5w-14" target="oFvCKLaS0GSqAq1-Jr5w-21" edge="1">
                    <mxGeometry width="100" relative="1" as="geometry">
                        <mxPoint x="130" y="530" as="sourcePoint"/>
                        <mxPoint x="1.4545454545454959" y="560" as="targetPoint"/>
                        <Array as="points">
                            <mxPoint x="50" y="610"/>
                            <mxPoint x="50" y="580"/>
                        </Array>
                    </mxGeometry>
                </mxCell>
                <mxCell id="2" value="Prepared data Bucket" style="sketch=0;outlineConnect=0;fontColor=#232F3E;gradientColor=none;fillColor=#6CAE3E;strokeColor=none;dashed=0;verticalLabelPosition=bottom;verticalAlign=top;align=center;html=1;fontSize=12;fontStyle=0;aspect=fixed;pointerEvents=1;shape=mxgraph.aws4.bucket;" vertex="1" parent="oFvCKLaS0GSqAq1-Jr5w-4">
                    <mxGeometry x="470" y="600" width="75" height="78" as="geometry"/>
                </mxCell>
                <mxCell id="4" value="" style="edgeStyle=orthogonalEdgeStyle;html=1;endArrow=block;elbow=vertical;startArrow=none;endFill=1;strokeColor=#545B64;rounded=0;exitX=1;exitY=0.5;exitDx=0;exitDy=0;" edge="1" parent="oFvCKLaS0GSqAq1-Jr5w-4">
                    <mxGeometry width="100" relative="1" as="geometry">
                        <mxPoint x="360" y="520" as="sourcePoint"/>
                        <mxPoint x="470" y="490" as="targetPoint"/>
                        <Array as="points">
                            <mxPoint x="440" y="520"/>
                            <mxPoint x="440" y="490"/>
                        </Array>
                    </mxGeometry>
                </mxCell>
                <mxCell id="5" value="" style="edgeStyle=orthogonalEdgeStyle;html=1;endArrow=block;elbow=vertical;startArrow=none;endFill=1;strokeColor=#545B64;rounded=0;exitX=1;exitY=0.5;exitDx=0;exitDy=0;" edge="1" parent="oFvCKLaS0GSqAq1-Jr5w-4" source="oFvCKLaS0GSqAq1-Jr5w-14" target="2">
                    <mxGeometry width="100" relative="1" as="geometry">
                        <mxPoint x="370" y="530" as="sourcePoint"/>
                        <mxPoint x="480" y="500" as="targetPoint"/>
                        <Array as="points">
                            <mxPoint x="440" y="610"/>
                            <mxPoint x="440" y="639"/>
                        </Array>
                    </mxGeometry>
                </mxCell>
            </root>
        </mxGraphModel>
    </diagram>
</mxfile>